<?xml version="1.0" standalone="no"?>
<!DOCTYPE svg PUBLIC "-//W3C//DTD SVG 20010904//EN"
 "http://www.w3.org/TR/2001/REC-SVG-20010904/DTD/svg10.dtd">
<svg version="1.0" xmlns="http://www.w3.org/2000/svg"
 width="193.000000pt" height="193.000000pt" viewBox="0 0 193.000000 193.000000"
 preserveAspectRatio="xMidYMid meet">
<metadata>
Created by potrace 1.11, written by Peter Selinger 2001-2013
</metadata>
<g transform="translate(0.000000,193.000000) scale(0.100000,-0.100000)"
fill="#000000" stroke="none">
<path d="M1228 1756 c32 -41 459 -613 465 -622 3 -6 1 -11 -6 -11 -17 0 -142
-13 -169 -18 -34 -6 -87 -13 -143 -20 -200 -27 -594 -120 -778 -186 -142 -50
-171 -69 -218 -138 -30 -45 -47 -59 -106 -86 -96 -44 -149 -94 -159 -148 -17
-90 8 -165 75 -231 l39 -38 21 21 c75 75 260 138 463 157 71 6 401 6 435 0 12
-3 57 -7 100 -11 43 -3 89 -7 103 -10 14 -2 45 -7 70 -10 25 -3 74 -11 110
-16 36 -6 76 -12 90 -14 14 -2 75 -13 135 -25 61 -12 125 -24 143 -27 l32 -5
0 55 0 55 -72 12 c-40 7 -82 14 -93 16 -11 2 -40 6 -65 9 -25 3 -56 7 -70 10
-14 2 -47 7 -75 10 -27 3 -61 7 -75 10 -14 2 -56 7 -95 10 -38 3 -88 7 -110
10 -117 14 -168 17 -360 19 -341 5 -543 -33 -629 -118 l-24 -25 -25 22 c-36
32 -49 62 -38 89 12 31 30 46 94 75 57 27 97 59 97 80 0 16 42 61 85 90 28 19
181 73 305 107 51 14 227 48 310 60 177 26 547 27 676 2 12 -3 39 -7 60 -10
22 -4 54 -9 72 -12 l32 -6 0 213 0 214 -70 123 c-39 68 -70 127 -70 132 0 6
-4 10 -10 10 -5 0 -10 4 -10 9 0 5 -22 47 -48 93 l-48 83 -227 1 c-168 1 -225
-1 -219 -10z"/>
<path d="M525 682 c-14 -7 -23 -17 -20 -22 9 -15 48 -12 73 6 43 30 -1 44 -53
16z"/>
</g>
</svg>
